<?xml version="1.0" standalone="no"?>
<!DOCTYPE svg PUBLIC "-//W3C//DTD SVG 20010904//EN"
 "http://www.w3.org/TR/2001/REC-SVG-20010904/DTD/svg10.dtd">
<svg version="1.0" xmlns="http://www.w3.org/2000/svg"
 width="500.000000pt" height="500.000000pt" viewBox="0 0 500.000000 500.000000"
 preserveAspectRatio="xMidYMid meet">

<g transform="translate(0.000000,500.000000) scale(0.100000,-0.100000)"
fill="#000000" stroke="none">
<path d="M2515 4964 c-50 -42 -136 -106 -205 -152 -76 -51 -354 -189 -455
-227 -394 -147 -728 -235 -1199 -314 l-220 -37 -8 -29 c-17 -65 -41 -400 -41
-585 -2 -861 251 -1654 757 -2375 79 -112 269 -338 389 -461 285 -294 670
-588 965 -738 l52 -26 41 20 c71 37 234 136 336 206 220 150 384 286 579 479
458 454 770 947 987 1560 100 282 163 565 202 910 21 180 20 664 -1 845 -24
213 -7 190 -165 217 -872 152 -1572 405 -1935 700 -23 18 -43 33 -45 33 -2 -1
-17 -12 -34 -26z m209 -381 c378 -211 871 -380 1480 -507 88 -19 182 -37 208
-40 l46 -7 8 -107 c11 -152 8 -558 -5 -682 -36 -329 -116 -671 -226 -966 -74
-198 -212 -486 -299 -624 -112 -177 -121 -190 -212 -314 -113 -154 -203 -256
-368 -421 -140 -140 -293 -277 -362 -325 -12 -8 -48 -35 -80 -60 -53 -40 -200
-139 -318 -213 l-45 -28 -53 32 c-163 98 -235 148 -413 285 -394 307 -750 725
-986 1159 -154 282 -259 543 -343 850 -101 373 -150 828 -127 1190 16 234 12
222 74 230 73 9 382 71 502 101 566 139 974 301 1295 515 l54 36 54 -35 c30
-19 82 -50 116 -69z"/>
<path d="M2504 4187 c-124 -106 -320 -208 -554 -289 -203 -70 -628 -170 -781
-184 -38 -4 -72 -10 -74 -15 -18 -28 -37 -246 -37 -419 0 -768 283 -1450 827
-1995 198 -198 397 -351 600 -460 l70 -37 58 33 c84 49 284 185 374 254 105
80 353 328 446 447 284 361 465 750 557 1196 39 194 51 314 51 547 0 162 -15
423 -26 433 -1 2 -34 8 -71 13 -244 34 -649 141 -923 244 -132 49 -352 171
-429 237 -18 15 -36 28 -41 28 -4 0 -25 -15 -47 -33z m229 -544 c112 -33 249
-122 318 -205 55 -68 104 -156 130 -238 33 -106 34 -264 1 -370 -64 -206 -237
-379 -438 -439 -39 -12 -81 -21 -93 -21 -20 0 -21 -4 -21 -115 l0 -115 124 0
c115 0 127 -2 150 -22 34 -32 39 -58 17 -94 -23 -38 -49 -44 -187 -44 l-103 0
-3 -161 c-3 -155 -4 -161 -27 -180 -30 -24 -72 -24 -102 0 -23 19 -24 25 -27
180 l-3 161 -115 0 c-127 0 -162 11 -182 54 -14 32 -3 67 30 90 18 13 49 16
145 16 l123 0 0 115 c0 111 -1 115 -21 115 -40 0 -160 41 -222 75 -71 40 -168
127 -220 201 -52 73 -96 190 -109 290 -25 196 43 396 186 540 84 86 246 168
360 184 79 11 224 3 289 -17z"/>
<path d="M2439 3505 c-104 -26 -169 -64 -250 -145 -66 -66 -81 -88 -110 -161
-29 -74 -33 -95 -34 -179 0 -80 4 -107 28 -172 16 -42 43 -97 60 -121 70 -99
185 -175 304 -201 90 -20 124 -20 221 0 193 39 343 188 387 384 43 195 -41
406 -208 519 -109 74 -279 107 -398 76z"/>
</g>
</svg>
